<?xml version="1.0" encoding="utf-8"?>
<!-- Generator: Adobe Illustrator 25.0.0, SVG Export Plug-In . SVG Version: 6.00 Build 0)  -->
<svg version="1.1" id="Layer_1" xmlns="http://www.w3.org/2000/svg" xmlns:xlink="http://www.w3.org/1999/xlink" x="0px" y="0px"
	 viewBox="0 0 274.4 273.3" style="enable-background:new 0 0 274.4 273.3;" xml:space="preserve">
<style type="text/css">
	.st0{fill:#1EEDCF;}
	.st1{fill:#03C3F2;}
	.st2{fill:url(#SVGID_1_);}
</style>
<g>
	<path class="st0" d="M147,87.4c11.3,1.1,21.1,5.8,29.8,12.7c6.9,5.8,15.3,5.5,21.1-0.7c5.8-6.2,5.1-14.6-1.8-21.5
		c-2.5-2.5-5.5-5.1-8.4-7.3C155,47.7,107.3,54.3,82.2,84.5c-26.6,32.4-24,80.4,5.5,108.8c22.6,21.8,57.1,28.4,85.9,16
		c10.9-4.7,21.1-10.6,28.4-20.4c4.7-6.5,3.6-14.9-1.8-20c-5.1-4.7-13.8-4.7-20,0.4c-3.3,2.5-6.5,5.8-9.8,8
		c-17.1,11.6-41.5,10.6-57.8-2.5c-17.8-14.6-23.6-37.1-14.6-58.9C105.1,97.9,126.2,85.6,147,87.4z"/>
	<path class="st1" d="M251.8,179.4c-7.6-4.4-15.6-1.1-21.1,8.4c-37.8,65.8-123.7,74.9-174.3,18.6c-9.8-10.9-16.4-23.3-21.1-37.1
		c-0.4-1.1-0.7-2.5-1.5-3.3c-1.5-5.5-2.9-10.9-3.3-16.7c-1.5-17.1,0.7-33.1,5.5-47.7c0.4-0.7,0.7-1.5,1.1-2.2
		c4.4-10.2,9.5-20,16.4-28.7c9.8-12,21.5-21.5,33.8-28c19.3-9.8,41.1-13.8,63.7-10.9c5.1,0.7,9.8,1.8,14.9,2.9
		c1.5,0.4,2.9,0.4,4,0.4c20,6.5,38.6,18.9,52.4,37.1c2.9,4,5.8,8.4,8.4,12.4c5.1,8.4,13.1,10.9,20.4,6.9c8-4.4,9.8-12,5.1-21.1
		c-1.1-1.8-1.8-3.6-2.9-5.5C223,12.1,152.4-13.7,93.1,7.4C76,13.5,61.1,21.9,48,32.8c-14.2,12-26.2,26.6-34.2,43.7
		c-16.7,36.4-18.6,73.1-4,111c0.7,1.8,1.5,3.6,2.5,5.5c0.7,1.5,1.8,2.9,2.9,4c0.7,1.5,1.8,3.3,2.5,4.7
		c29.5,58.6,104.4,88.8,171,61.5c30.2-12.4,52.4-32.7,68-61.1C262.3,192.5,260.1,184.2,251.8,179.4z"/>
	
		<linearGradient id="SVGID_1_" gradientUnits="userSpaceOnUse" x1="261.8157" y1="181.8039" x2="113.7374" y2="183.7235" gradientTransform="matrix(1 0 0 -1 0 320)">
		<stop  offset="0" style="stop-color:#03C3F2"/>
		<stop  offset="0.3225" style="stop-color:#04C5F0"/>
		<stop  offset="0.4387" style="stop-color:#09CCEB"/>
		<stop  offset="0.5212" style="stop-color:#10D7E1"/>
		<stop  offset="0.5878" style="stop-color:#1BE8D3"/>
		<stop  offset="0.6025" style="stop-color:#1EEDCF"/>
	</linearGradient>
	<path class="st2" d="M269.2,119.8c-7.3-9.1-18.9-10.6-30.2-3.6c-24.4,14.2-40.4,13.5-63.7-3.6c-12.7-9.5-32-7.6-41.8,3.6
		c-10.6,12-9.5,31.7,2.5,42.9c12,11.3,30.2,10.9,43.7-1.1c20.4-17.8,37.1-19.6,60-6.2c10.9,6.5,22.2,5.1,29.5-3.3
		C276.1,140.5,276.1,128.5,269.2,119.8z"/>
</g>
</svg>
